<mxfile host="app.diagrams.net" agent="Mozilla/5.0 (Windows NT 10.0; Win64; x64) AppleWebKit/537.36 (KHTML, like Gecko) Chrome/134.0.0.0 Safari/537.36" version="26.1.1">
  <diagram name="Page-1" id="gSAlf5-J-mTgokgtJlro">
    <mxGraphModel dx="1049" dy="546" grid="1" gridSize="10" guides="1" tooltips="1" connect="1" arrows="1" fold="1" page="1" pageScale="1" pageWidth="850" pageHeight="1100" math="0" shadow="0">
      <root>
        <mxCell id="0" />
        <mxCell id="1" parent="0" />
        <mxCell id="aPZS67TkxXIWe00KZSoI-1" value="MCU&lt;div&gt;LPC802&lt;/div&gt;" style="rounded=0;whiteSpace=wrap;html=1;" parent="1" vertex="1">
          <mxGeometry x="320" y="320" width="160" height="280" as="geometry" />
        </mxCell>
        <mxCell id="aPZS67TkxXIWe00KZSoI-2" value="+3.3V" style="text;html=1;align=center;verticalAlign=middle;whiteSpace=wrap;rounded=0;fontSize=10;" parent="1" vertex="1">
          <mxGeometry x="520" y="190" width="30" height="20" as="geometry" />
        </mxCell>
        <mxCell id="iXIhRMF7xX4rHHFmgsRS-1" value="AP63203" style="rounded=0;whiteSpace=wrap;html=1;" vertex="1" parent="1">
          <mxGeometry x="340" y="160" width="120" height="80" as="geometry" />
        </mxCell>
        <mxCell id="iXIhRMF7xX4rHHFmgsRS-2" value="" style="endArrow=classic;html=1;rounded=0;exitX=1;exitY=0.5;exitDx=0;exitDy=0;entryX=0;entryY=0.5;entryDx=0;entryDy=0;" edge="1" parent="1" source="iXIhRMF7xX4rHHFmgsRS-1" target="aPZS67TkxXIWe00KZSoI-2">
          <mxGeometry width="50" height="50" relative="1" as="geometry">
            <mxPoint x="570" y="310" as="sourcePoint" />
            <mxPoint x="500" y="200" as="targetPoint" />
          </mxGeometry>
        </mxCell>
        <mxCell id="iXIhRMF7xX4rHHFmgsRS-3" value="" style="endArrow=classic;html=1;rounded=0;" edge="1" parent="1">
          <mxGeometry width="50" height="50" relative="1" as="geometry">
            <mxPoint x="280" y="200" as="sourcePoint" />
            <mxPoint x="340" y="200" as="targetPoint" />
          </mxGeometry>
        </mxCell>
        <mxCell id="iXIhRMF7xX4rHHFmgsRS-4" value="V&lt;sub&gt;MOT&lt;/sub&gt;" style="text;html=1;align=center;verticalAlign=middle;whiteSpace=wrap;rounded=0;fontSize=10;" vertex="1" parent="1">
          <mxGeometry x="230" y="190" width="50" height="20" as="geometry" />
        </mxCell>
        <mxCell id="iXIhRMF7xX4rHHFmgsRS-5" value="Buck Regulator" style="text;html=1;align=center;verticalAlign=middle;whiteSpace=wrap;rounded=0;fontSize=9;" vertex="1" parent="1">
          <mxGeometry x="340" y="200" width="120" height="30" as="geometry" />
        </mxCell>
        <mxCell id="iXIhRMF7xX4rHHFmgsRS-6" value="+3.3V" style="text;html=1;align=center;verticalAlign=middle;whiteSpace=wrap;rounded=0;fontSize=10;" vertex="1" parent="1">
          <mxGeometry x="340" y="270" width="40" height="20" as="geometry" />
        </mxCell>
        <mxCell id="iXIhRMF7xX4rHHFmgsRS-7" value="" style="endArrow=none;html=1;rounded=0;" edge="1" parent="1">
          <mxGeometry width="50" height="50" relative="1" as="geometry">
            <mxPoint x="350" y="290" as="sourcePoint" />
            <mxPoint x="370" y="290" as="targetPoint" />
            <Array as="points">
              <mxPoint x="362.5" y="290" />
            </Array>
          </mxGeometry>
        </mxCell>
        <mxCell id="iXIhRMF7xX4rHHFmgsRS-8" value="" style="endArrow=none;html=1;rounded=0;exitX=0.25;exitY=0;exitDx=0;exitDy=0;" edge="1" parent="1" source="aPZS67TkxXIWe00KZSoI-1">
          <mxGeometry width="50" height="50" relative="1" as="geometry">
            <mxPoint x="230" y="360" as="sourcePoint" />
            <mxPoint x="360" y="290" as="targetPoint" />
          </mxGeometry>
        </mxCell>
        <mxCell id="iXIhRMF7xX4rHHFmgsRS-9" value="A4988" style="rounded=0;whiteSpace=wrap;html=1;" vertex="1" parent="1">
          <mxGeometry x="560" y="320" width="120" height="100" as="geometry" />
        </mxCell>
        <mxCell id="iXIhRMF7xX4rHHFmgsRS-10" value="&lt;font&gt;Stepper Motor Driver&lt;/font&gt;" style="text;html=1;align=center;verticalAlign=middle;whiteSpace=wrap;rounded=0;fontSize=9;" vertex="1" parent="1">
          <mxGeometry x="560" y="370" width="120" height="30" as="geometry" />
        </mxCell>
        <mxCell id="iXIhRMF7xX4rHHFmgsRS-11" value="+3.3V" style="text;html=1;align=center;verticalAlign=middle;whiteSpace=wrap;rounded=0;fontSize=10;" vertex="1" parent="1">
          <mxGeometry x="560" y="270" width="40" height="20" as="geometry" />
        </mxCell>
        <mxCell id="iXIhRMF7xX4rHHFmgsRS-12" value="" style="endArrow=none;html=1;rounded=0;" edge="1" parent="1">
          <mxGeometry width="50" height="50" relative="1" as="geometry">
            <mxPoint x="570" y="290" as="sourcePoint" />
            <mxPoint x="590" y="290" as="targetPoint" />
            <Array as="points">
              <mxPoint x="582.5" y="290" />
            </Array>
          </mxGeometry>
        </mxCell>
        <mxCell id="iXIhRMF7xX4rHHFmgsRS-13" value="" style="endArrow=none;html=1;rounded=0;exitX=0.25;exitY=0;exitDx=0;exitDy=0;" edge="1" parent="1">
          <mxGeometry width="50" height="50" relative="1" as="geometry">
            <mxPoint x="580" y="320" as="sourcePoint" />
            <mxPoint x="580" y="290" as="targetPoint" />
          </mxGeometry>
        </mxCell>
        <mxCell id="iXIhRMF7xX4rHHFmgsRS-17" value="V&lt;sub&gt;MOT&lt;/sub&gt;" style="text;html=1;align=center;verticalAlign=middle;whiteSpace=wrap;rounded=0;fontSize=10;" vertex="1" parent="1">
          <mxGeometry x="640" y="270" width="40" height="20" as="geometry" />
        </mxCell>
        <mxCell id="iXIhRMF7xX4rHHFmgsRS-18" value="" style="endArrow=none;html=1;rounded=0;" edge="1" parent="1">
          <mxGeometry width="50" height="50" relative="1" as="geometry">
            <mxPoint x="650" y="290" as="sourcePoint" />
            <mxPoint x="670" y="290" as="targetPoint" />
            <Array as="points">
              <mxPoint x="662.5" y="290" />
            </Array>
          </mxGeometry>
        </mxCell>
        <mxCell id="iXIhRMF7xX4rHHFmgsRS-19" value="" style="endArrow=none;html=1;rounded=0;exitX=0.25;exitY=0;exitDx=0;exitDy=0;" edge="1" parent="1">
          <mxGeometry width="50" height="50" relative="1" as="geometry">
            <mxPoint x="660" y="320" as="sourcePoint" />
            <mxPoint x="660" y="290" as="targetPoint" />
          </mxGeometry>
        </mxCell>
        <mxCell id="iXIhRMF7xX4rHHFmgsRS-21" value="" style="endArrow=classic;html=1;rounded=0;entryX=0;entryY=0.5;entryDx=0;entryDy=0;exitX=1.015;exitY=0.144;exitDx=0;exitDy=0;exitPerimeter=0;" edge="1" parent="1" source="aPZS67TkxXIWe00KZSoI-1" target="iXIhRMF7xX4rHHFmgsRS-24">
          <mxGeometry width="50" height="50" relative="1" as="geometry">
            <mxPoint x="380" y="370" as="sourcePoint" />
            <mxPoint x="430" y="320" as="targetPoint" />
          </mxGeometry>
        </mxCell>
        <mxCell id="iXIhRMF7xX4rHHFmgsRS-22" value="" style="endArrow=none;html=1;rounded=0;" edge="1" parent="1">
          <mxGeometry width="50" height="50" relative="1" as="geometry">
            <mxPoint x="510" y="370" as="sourcePoint" />
            <mxPoint x="530" y="350" as="targetPoint" />
            <Array as="points">
              <mxPoint x="520" y="360" />
            </Array>
          </mxGeometry>
        </mxCell>
        <mxCell id="iXIhRMF7xX4rHHFmgsRS-23" value="3" style="text;html=1;align=center;verticalAlign=middle;whiteSpace=wrap;rounded=0;" vertex="1" parent="1">
          <mxGeometry x="490" y="330" width="60" height="30" as="geometry" />
        </mxCell>
        <mxCell id="iXIhRMF7xX4rHHFmgsRS-24" value="Step&lt;br&gt;Direction&lt;br&gt;Enable" style="text;html=1;align=left;verticalAlign=middle;whiteSpace=wrap;rounded=0;fontSize=8;" vertex="1" parent="1">
          <mxGeometry x="560" y="345" width="40" height="30" as="geometry" />
        </mxCell>
        <mxCell id="iXIhRMF7xX4rHHFmgsRS-25" value="GPIO" style="text;html=1;align=right;verticalAlign=middle;whiteSpace=wrap;rounded=0;fontSize=10;" vertex="1" parent="1">
          <mxGeometry x="440" y="350" width="40" height="20" as="geometry" />
        </mxCell>
        <mxCell id="iXIhRMF7xX4rHHFmgsRS-26" value="M" style="verticalLabelPosition=middle;shadow=0;dashed=0;align=center;html=1;verticalAlign=middle;strokeWidth=1;shape=ellipse;aspect=fixed;fontSize=35;" vertex="1" parent="1">
          <mxGeometry x="750" y="315" width="60" height="60" as="geometry" />
        </mxCell>
        <mxCell id="iXIhRMF7xX4rHHFmgsRS-27" value="" style="endArrow=classic;html=1;rounded=0;entryX=0;entryY=0.5;entryDx=0;entryDy=0;exitX=1;exitY=0.25;exitDx=0;exitDy=0;" edge="1" parent="1" source="iXIhRMF7xX4rHHFmgsRS-9" target="iXIhRMF7xX4rHHFmgsRS-26">
          <mxGeometry width="50" height="50" relative="1" as="geometry">
            <mxPoint x="680" y="385" as="sourcePoint" />
            <mxPoint x="758" y="385" as="targetPoint" />
          </mxGeometry>
        </mxCell>
        <mxCell id="iXIhRMF7xX4rHHFmgsRS-28" value="" style="endArrow=none;html=1;rounded=0;" edge="1" parent="1">
          <mxGeometry width="50" height="50" relative="1" as="geometry">
            <mxPoint x="708" y="355" as="sourcePoint" />
            <mxPoint x="728" y="335" as="targetPoint" />
            <Array as="points">
              <mxPoint x="718" y="345" />
            </Array>
          </mxGeometry>
        </mxCell>
        <mxCell id="iXIhRMF7xX4rHHFmgsRS-29" value="4" style="text;html=1;align=center;verticalAlign=middle;whiteSpace=wrap;rounded=0;" vertex="1" parent="1">
          <mxGeometry x="690" y="315" width="60" height="30" as="geometry" />
        </mxCell>
        <mxCell id="iXIhRMF7xX4rHHFmgsRS-30" value="&lt;font&gt;NEMA 17&lt;/font&gt;&lt;div&gt;&lt;font&gt;Stepper Motor&lt;/font&gt;&lt;/div&gt;" style="text;html=1;align=center;verticalAlign=middle;whiteSpace=wrap;rounded=0;fontSize=9;" vertex="1" parent="1">
          <mxGeometry x="720" y="375" width="120" height="30" as="geometry" />
        </mxCell>
        <mxCell id="iXIhRMF7xX4rHHFmgsRS-31" value="Camera Shutter" style="text;html=1;align=center;verticalAlign=middle;whiteSpace=wrap;rounded=0;fontSize=10;" vertex="1" parent="1">
          <mxGeometry x="560" y="450" width="40" height="20" as="geometry" />
        </mxCell>
        <mxCell id="iXIhRMF7xX4rHHFmgsRS-32" value="" style="endArrow=classic;html=1;rounded=0;exitX=1;exitY=0.5;exitDx=0;exitDy=0;entryX=0;entryY=0.5;entryDx=0;entryDy=0;" edge="1" parent="1" target="iXIhRMF7xX4rHHFmgsRS-31">
          <mxGeometry width="50" height="50" relative="1" as="geometry">
            <mxPoint x="480" y="460" as="sourcePoint" />
            <mxPoint x="540" y="460" as="targetPoint" />
          </mxGeometry>
        </mxCell>
        <mxCell id="iXIhRMF7xX4rHHFmgsRS-33" value="GPIO" style="text;html=1;align=right;verticalAlign=middle;whiteSpace=wrap;rounded=0;fontSize=10;" vertex="1" parent="1">
          <mxGeometry x="440" y="450" width="40" height="20" as="geometry" />
        </mxCell>
        <mxCell id="iXIhRMF7xX4rHHFmgsRS-36" value="" style="endArrow=classic;html=1;rounded=0;exitX=1;exitY=0.5;exitDx=0;exitDy=0;entryX=0;entryY=0.5;entryDx=0;entryDy=0;" edge="1" parent="1">
          <mxGeometry width="50" height="50" relative="1" as="geometry">
            <mxPoint x="480" y="550" as="sourcePoint" />
            <mxPoint x="560" y="549.9999999999999" as="targetPoint" />
          </mxGeometry>
        </mxCell>
        <mxCell id="iXIhRMF7xX4rHHFmgsRS-37" value="SCL&lt;br&gt;SDA" style="text;html=1;align=right;verticalAlign=middle;whiteSpace=wrap;rounded=0;fontSize=10;" vertex="1" parent="1">
          <mxGeometry x="440" y="540" width="40" height="20" as="geometry" />
        </mxCell>
        <mxCell id="iXIhRMF7xX4rHHFmgsRS-38" value="SCL&lt;br&gt;SDA" style="text;html=1;align=center;verticalAlign=middle;whiteSpace=wrap;rounded=0;fontSize=10;" vertex="1" parent="1">
          <mxGeometry x="320" y="350" width="40" height="20" as="geometry" />
        </mxCell>
        <mxCell id="iXIhRMF7xX4rHHFmgsRS-39" value="" style="endArrow=classic;html=1;rounded=0;exitX=1;exitY=0.5;exitDx=0;exitDy=0;entryX=0;entryY=0.5;entryDx=0;entryDy=0;" edge="1" parent="1" target="iXIhRMF7xX4rHHFmgsRS-38">
          <mxGeometry width="50" height="50" relative="1" as="geometry">
            <mxPoint x="240" y="360" as="sourcePoint" />
            <mxPoint x="300" y="360" as="targetPoint" />
          </mxGeometry>
        </mxCell>
        <mxCell id="iXIhRMF7xX4rHHFmgsRS-41" value="" style="endArrow=none;html=1;rounded=0;" edge="1" parent="1">
          <mxGeometry width="50" height="50" relative="1" as="geometry">
            <mxPoint x="270" y="370" as="sourcePoint" />
            <mxPoint x="290" y="350" as="targetPoint" />
            <Array as="points">
              <mxPoint x="280" y="360" />
            </Array>
          </mxGeometry>
        </mxCell>
        <mxCell id="iXIhRMF7xX4rHHFmgsRS-42" value="4" style="text;html=1;align=center;verticalAlign=middle;whiteSpace=wrap;rounded=0;" vertex="1" parent="1">
          <mxGeometry x="250" y="330" width="60" height="30" as="geometry" />
        </mxCell>
        <mxCell id="iXIhRMF7xX4rHHFmgsRS-43" value="OPT3004" style="rounded=0;whiteSpace=wrap;html=1;" vertex="1" parent="1">
          <mxGeometry x="160" y="330" width="80" height="60" as="geometry" />
        </mxCell>
        <mxCell id="iXIhRMF7xX4rHHFmgsRS-44" value="OPT3004" style="rounded=0;whiteSpace=wrap;html=1;" vertex="1" parent="1">
          <mxGeometry x="60" y="330" width="80" height="60" as="geometry" />
        </mxCell>
        <mxCell id="iXIhRMF7xX4rHHFmgsRS-45" value="OPT3004" style="rounded=0;whiteSpace=wrap;html=1;" vertex="1" parent="1">
          <mxGeometry x="160" y="250" width="80" height="60" as="geometry" />
        </mxCell>
        <mxCell id="iXIhRMF7xX4rHHFmgsRS-46" value="OPT3004" style="rounded=0;whiteSpace=wrap;html=1;" vertex="1" parent="1">
          <mxGeometry x="60" y="250" width="80" height="60" as="geometry" />
        </mxCell>
        <mxCell id="iXIhRMF7xX4rHHFmgsRS-47" value="" style="endArrow=none;html=1;rounded=0;entryX=0.5;entryY=1;entryDx=0;entryDy=0;exitX=0.5;exitY=0;exitDx=0;exitDy=0;" edge="1" parent="1" source="iXIhRMF7xX4rHHFmgsRS-43" target="iXIhRMF7xX4rHHFmgsRS-45">
          <mxGeometry width="50" height="50" relative="1" as="geometry">
            <mxPoint x="250" y="370" as="sourcePoint" />
            <mxPoint x="300" y="320" as="targetPoint" />
          </mxGeometry>
        </mxCell>
        <mxCell id="iXIhRMF7xX4rHHFmgsRS-48" value="" style="endArrow=none;html=1;rounded=0;entryX=0;entryY=0.5;entryDx=0;entryDy=0;exitX=1;exitY=0.5;exitDx=0;exitDy=0;" edge="1" parent="1" source="iXIhRMF7xX4rHHFmgsRS-46" target="iXIhRMF7xX4rHHFmgsRS-45">
          <mxGeometry width="50" height="50" relative="1" as="geometry">
            <mxPoint x="210" y="340" as="sourcePoint" />
            <mxPoint x="210" y="320" as="targetPoint" />
          </mxGeometry>
        </mxCell>
        <mxCell id="iXIhRMF7xX4rHHFmgsRS-49" value="" style="endArrow=none;html=1;rounded=0;entryX=0.5;entryY=1;entryDx=0;entryDy=0;exitX=0.5;exitY=0;exitDx=0;exitDy=0;" edge="1" parent="1" source="iXIhRMF7xX4rHHFmgsRS-44" target="iXIhRMF7xX4rHHFmgsRS-46">
          <mxGeometry width="50" height="50" relative="1" as="geometry">
            <mxPoint x="150" y="290" as="sourcePoint" />
            <mxPoint x="170" y="290" as="targetPoint" />
          </mxGeometry>
        </mxCell>
        <mxCell id="iXIhRMF7xX4rHHFmgsRS-50" value="" style="endArrow=none;html=1;rounded=0;entryX=0;entryY=0.5;entryDx=0;entryDy=0;exitX=1;exitY=0.5;exitDx=0;exitDy=0;" edge="1" parent="1" source="iXIhRMF7xX4rHHFmgsRS-44" target="iXIhRMF7xX4rHHFmgsRS-43">
          <mxGeometry width="50" height="50" relative="1" as="geometry">
            <mxPoint x="110" y="340" as="sourcePoint" />
            <mxPoint x="110" y="320" as="targetPoint" />
          </mxGeometry>
        </mxCell>
        <mxCell id="iXIhRMF7xX4rHHFmgsRS-51" value="Light Sensor Array" style="text;html=1;align=center;verticalAlign=middle;whiteSpace=wrap;rounded=0;fontSize=10;" vertex="1" parent="1">
          <mxGeometry x="90" y="230" width="120" height="20" as="geometry" />
        </mxCell>
        <mxCell id="iXIhRMF7xX4rHHFmgsRS-52" value="LCD Screen" style="rounded=0;whiteSpace=wrap;html=1;" vertex="1" parent="1">
          <mxGeometry x="560" y="520" width="120" height="60" as="geometry" />
        </mxCell>
        <mxCell id="iXIhRMF7xX4rHHFmgsRS-55" value="" style="endArrow=none;html=1;rounded=0;" edge="1" parent="1">
          <mxGeometry width="50" height="50" relative="1" as="geometry">
            <mxPoint x="510" y="560" as="sourcePoint" />
            <mxPoint x="530" y="540" as="targetPoint" />
            <Array as="points">
              <mxPoint x="520" y="550" />
            </Array>
          </mxGeometry>
        </mxCell>
        <mxCell id="iXIhRMF7xX4rHHFmgsRS-56" value="4" style="text;html=1;align=center;verticalAlign=middle;whiteSpace=wrap;rounded=0;" vertex="1" parent="1">
          <mxGeometry x="490" y="520" width="60" height="30" as="geometry" />
        </mxCell>
        <mxCell id="iXIhRMF7xX4rHHFmgsRS-60" value="" style="endArrow=classic;html=1;rounded=0;exitX=1;exitY=0.5;exitDx=0;exitDy=0;entryX=0;entryY=0.5;entryDx=0;entryDy=0;" edge="1" parent="1">
          <mxGeometry width="50" height="50" relative="1" as="geometry">
            <mxPoint x="240" y="460" as="sourcePoint" />
            <mxPoint x="320" y="460" as="targetPoint" />
          </mxGeometry>
        </mxCell>
        <mxCell id="iXIhRMF7xX4rHHFmgsRS-61" value="" style="endArrow=none;html=1;rounded=0;" edge="1" parent="1">
          <mxGeometry width="50" height="50" relative="1" as="geometry">
            <mxPoint x="270" y="470" as="sourcePoint" />
            <mxPoint x="290" y="450" as="targetPoint" />
            <Array as="points">
              <mxPoint x="280" y="460" />
            </Array>
          </mxGeometry>
        </mxCell>
        <mxCell id="iXIhRMF7xX4rHHFmgsRS-62" value="2" style="text;html=1;align=center;verticalAlign=middle;whiteSpace=wrap;rounded=0;" vertex="1" parent="1">
          <mxGeometry x="250" y="430" width="60" height="30" as="geometry" />
        </mxCell>
        <mxCell id="iXIhRMF7xX4rHHFmgsRS-63" value="&lt;div&gt;&lt;br&gt;&lt;/div&gt;User Interface" style="rounded=0;whiteSpace=wrap;html=1;" vertex="1" parent="1">
          <mxGeometry x="60" y="420" width="180" height="80" as="geometry" />
        </mxCell>
        <mxCell id="iXIhRMF7xX4rHHFmgsRS-66" value="" style="ellipse;whiteSpace=wrap;html=1;aspect=fixed;" vertex="1" parent="1">
          <mxGeometry x="80" y="430" width="30" height="30" as="geometry" />
        </mxCell>
        <mxCell id="iXIhRMF7xX4rHHFmgsRS-67" value="" style="ellipse;whiteSpace=wrap;html=1;aspect=fixed;" vertex="1" parent="1">
          <mxGeometry x="135" y="430" width="30" height="30" as="geometry" />
        </mxCell>
        <mxCell id="iXIhRMF7xX4rHHFmgsRS-69" value="" style="ellipse;whiteSpace=wrap;html=1;aspect=fixed;" vertex="1" parent="1">
          <mxGeometry x="190" y="430" width="30" height="30" as="geometry" />
        </mxCell>
        <mxCell id="iXIhRMF7xX4rHHFmgsRS-70" value="ADC" style="text;html=1;align=center;verticalAlign=middle;whiteSpace=wrap;rounded=0;fontSize=10;" vertex="1" parent="1">
          <mxGeometry x="320" y="450" width="40" height="20" as="geometry" />
        </mxCell>
        <mxCell id="iXIhRMF7xX4rHHFmgsRS-74" value="" style="endArrow=none;html=1;rounded=0;" edge="1" parent="1">
          <mxGeometry width="50" height="50" relative="1" as="geometry">
            <mxPoint x="510" y="470" as="sourcePoint" />
            <mxPoint x="530" y="450" as="targetPoint" />
            <Array as="points">
              <mxPoint x="520" y="460" />
            </Array>
          </mxGeometry>
        </mxCell>
        <mxCell id="iXIhRMF7xX4rHHFmgsRS-75" value="2" style="text;html=1;align=center;verticalAlign=middle;whiteSpace=wrap;rounded=0;" vertex="1" parent="1">
          <mxGeometry x="490" y="430" width="60" height="30" as="geometry" />
        </mxCell>
      </root>
    </mxGraphModel>
  </diagram>
</mxfile>
